<svg id="Layer_3" enable-background="new 0 0 64 64" height="512" viewBox="0 0 64 64" width="512" xmlns="http://www.w3.org/2000/svg"><path d="m21.535 14.122c-1.396-1.397-2.251-3.188-2.473-5.122h.938c.553 0 1-.448 1-1v-6c0-.552-.447-1-1-1h-12c-.553 0-1 .448-1 1v6c0 .552.447 1 1 1h.937c-.221 1.933-1.076 3.725-2.473 5.122l-2.344 2.343c-2.012 2.013-3.12 4.689-3.12 7.535v6c0 .552.447 1 1 1h1v12h-1c-.553 0-1 .447-1 1v16c0 1.654 1.346 3 3 3h20c1.654 0 3-1.346 3-3v-16c0-.553-.447-1-1-1h-1v-12h1c.553 0 1-.448 1-1v-6c0-2.846-1.108-5.522-3.121-7.536zm-12.535-11.122h10v4h-10zm16 57c0 .552-.448 1-1 1h-20c-.552 0-1-.448-1-1v-15h1 20 1zm-20-29h18v12h-18zm20-2h-1-20-1v-5c0-2.312.9-4.486 2.535-6.122l2.344-2.343c1.775-1.775 2.844-4.066 3.072-6.535h6.097c.228 2.469 1.297 4.76 3.072 6.536l2.344 2.343c1.636 1.635 2.536 3.809 2.536 6.121z"/><path d="m20 33h-12c-.553 0-1 .447-1 1v6c0 .553.447 1 1 1h12c.553 0 1-.447 1-1v-6c0-.553-.447-1-1-1zm-1 6h-10v-4h10z"/><path d="m50.901 18.995c.034.004.067.005.099.005.264 0 .519-.104.707-.293l6-6-1.414-1.414-5.138 5.137-1.323-1.985-1.664 1.109 2 3c.166.25.436.412.733.441z"/><path d="m53 25c5.514 0 10-4.486 10-10s-4.486-10-10-10-10 4.486-10 10 4.486 10 10 10zm0-18c4.411 0 8 3.589 8 8s-3.589 8-8 8-8-3.589-8-8 3.589-8 8-8z"/><path d="m60 57h-1c-.552 0-1-.448-1-1 0-1.654-1.346-3-3-3h-6v-23c0-.552-.447-1-1-1h-18c-.553 0-1 .448-1 1v32c0 .553.447 1 1 1h18 12c1.654 0 3-1.346 3-3s-1.346-3-3-3zm-29-26h16v10c-.378 0-.732-.147-1-.414l-.586-.586c-1.289-1.289-3.539-1.289-4.828 0l-.586.586c-.535.533-1.465.533-2 0l-.586-.586c-1.289-1.289-3.539-1.289-4.828 0l-.586.586c-.268.267-.622.414-1 .414zm16 30h-16v-18c.912 0 1.77-.355 2.414-1l.586-.586c.535-.533 1.465-.533 2 0l.586.586c1.289 1.289 3.539 1.289 4.828 0l.586-.586c.535-.533 1.465-.533 2 0l.586.586c.645.645 1.502 1 2.414 1zm13 0h-11v-6h6c.552 0 1 .448 1 1 0 1.654 1.346 3 3 3h1c.552 0 1 .448 1 1s-.448 1-1 1z"/></svg>