<?xml version="1.0" encoding="iso-8859-1"?>
<!-- Generator: Adobe Illustrator 19.0.0, SVG Export Plug-In . SVG Version: 6.00 Build 0)  -->
<svg version="1.1" id="Capa_1" xmlns="http://www.w3.org/2000/svg" xmlns:xlink="http://www.w3.org/1999/xlink" x="0px" y="0px"
	 viewBox="0 0 511.997 511.997" style="enable-background:new 0 0 511.997 511.997;" xml:space="preserve">
<g>
	<g>
		<path d="M488.535,323.291h-5.169c-1.092,0-2.163,0.081-3.215,0.228v-22.367c0-22.726-18.488-41.215-41.214-41.215h-12.31
			c-22.726,0-41.214,18.489-41.214,41.215v46.51h-9.15l-11.015-57.75c-4.434-23.248-30.943-26.764-49.427-27.289v-13.969h10.201
			c5.522,0,10-4.477,10-10v-52.813c0-5.522-4.478-10-10-10H173.545c-5.522,0-10,4.478-10,10v52.813c0,5.523,4.478,10,10,10h10.159
			v13.879h-7.747c-11.575,0-18.505,4.688-22.28,8.619c-6.455,6.723-9.471,16.892-8.964,30.229v46.28h-18.24v-46.51
			c0-22.726-18.489-41.215-41.215-41.215h-12.31c-22.726,0-41.214,18.489-41.214,41.215v22.353
			c-1.017-0.138-2.051-0.215-3.104-0.215h-5.169c-12.74,0-23.104,10.365-23.104,23.105v79.146c0,12.74,10.364,23.105,23.104,23.105
			h5.169c1.054,0,2.088-0.077,3.104-0.215v22.354c0,22.725,18.488,41.213,41.214,41.213h12.31c22.726,0,41.215-18.488,41.215-41.213
			V427.87h18.24v13.471c0,15.382,13.021,27.896,29.027,27.896h6.661c6.288,0,12.117-1.933,16.876-5.211
			c5.159,5.192,12.428,8.432,20.468,8.432h6.412c5.536,0,10.707-1.536,15.074-4.188c5.198,5.867,12.934,9.594,21.559,9.594h6.411
			c9.081,0,17.178-4.132,22.363-10.544c4.192,2.362,9.07,3.718,14.271,3.718h6.412c15.453,0,28.155-12.167,28.315-27.123
			l0.172-16.045h46.679v42.914c0,22.725,18.488,41.213,41.214,41.213h12.31c22.726,0,41.214-18.488,41.214-41.213V448.42
			c1.052,0.147,2.123,0.228,3.215,0.228h5.169c12.74,0,23.105-10.365,23.105-23.105v-79.146
			C511.639,333.656,501.275,323.291,488.535,323.291z M31.734,425.543c0.001,1.684-1.421,3.105-3.104,3.105h-5.169
			c-1.683,0-3.104-1.422-3.104-3.105v-79.146c0-1.684,1.422-3.105,3.104-3.105h5.169c1.683,0,3.104,1.422,3.104,3.105V425.543z
			 M106.474,470.787h-0.001c0,10.383-7.504,19.03-17.37,20.847v-49.159c0-5.522-4.478-10-10-10c-5.523,0-10,4.478-10,10v49.158
			c-9.865-1.816-17.368-10.463-17.368-20.846V301.152c0-11.698,9.517-21.215,21.214-21.215h12.31
			c11.698,0,21.215,9.517,21.215,21.215V470.787z M144.713,407.873h-18.24v-40.211h18.24V407.873z M183.545,228.655v-32.813h132.478
			v32.813H183.545z M329.489,347.663c-5.481,0-9.94,4.412-9.999,9.892l-0.646,60.317v0.001v0.001l-0.276,25.829
			c-0.047,4.046-3.777,7.338-8.32,7.338h-6.412c-4.508,0-8.316-3.312-8.316-7.23c0-5.523-4.478-10-10-10c-5.522,0-10,4.477-10,10
			v6.826c0,3.919-3.809,7.23-8.317,7.23h-6.411c-4.508,0-8.316-3.311-8.316-7.23v-5.404c0-5.523-4.478-10-10-10
			c-5.523,0-10,4.477-10,10c0,3.918-3.809,7.228-8.316,7.228h-6.412c-4.508,0-8.316-3.311-8.316-7.228v-3.889
			c0-5.523-4.478-10-10-10c-5.522,0-10,4.477-10,10c0,4.28-4.134,7.896-9.027,7.896h-6.661c-4.894,0-9.027-3.616-9.027-7.896
			V301.186c0-0.136-0.003-0.271-0.008-0.406c-0.308-7.57,0.899-13.172,3.397-15.774c0.587-0.611,2.373-2.472,7.855-2.472h17.747
			c5.522,0,10-4.478,10-10v-23.879h92.117v23.879c0,5.522,4.478,10,10,10h1.023c11.881-0.026,36.632-0.023,38.757,11.125
			l10.3,54.004H329.489z M385.414,407.873h-46.465l0.431-40.211h46.034V407.873z M460.152,470.787L460.152,470.787
			c-0.001,10.383-7.505,19.03-17.37,20.846v-49.158c0-5.522-4.477-10-10-10c-5.522,0-10,4.478-10,10v49.158
			c-9.865-1.816-17.368-10.463-17.368-20.846V301.152c0-11.698,9.517-21.215,21.214-21.215h12.31
			c11.697,0,21.214,9.517,21.214,21.215V470.787z M491.639,425.543c0,1.684-1.422,3.105-3.105,3.105h-5.169
			c-1.683,0-3.104-1.422-3.104-3.105c0-0.478-0.045-0.946-0.11-1.407v-76.332c0.065-0.461,0.11-0.929,0.11-1.407
			c0-1.684,1.422-3.105,3.104-3.105h5.169c1.683,0,3.105,1.422,3.105,3.105V425.543z"/>
	</g>
</g>
<g>
	<g>
		<path d="M425.514,43.713h-0.011c-5.518,0-9.994,4.47-10,9.989l-0.033,30.496l-16.978,17.493
			c-3.847,3.963-3.752,10.294,0.211,14.141c1.943,1.886,4.455,2.824,6.963,2.824c2.609,0,5.216-1.015,7.177-3.035l19.798-20.398
			c1.809-1.863,2.821-4.357,2.824-6.954l0.038-34.545C435.509,48.201,431.037,43.719,425.514,43.713z"/>
	</g>
</g>
<g>
	<g>
		<path d="M422.29,0c-47.686,0-86.482,38.796-86.482,86.482s38.795,86.481,86.482,86.481c47.686,0,86.482-38.795,86.482-86.48
			C508.771,38.796,469.976,0,422.29,0z M422.29,152.962c-36.659,0-66.481-29.823-66.481-66.48C355.808,49.824,385.631,20,422.29,20
			c36.658,0,66.482,29.824,66.482,66.482C488.772,123.139,458.949,152.962,422.29,152.962z"/>
	</g>
</g>
<g>
	<g>
		<path d="M79.103,397.578c-5.523,0-10,4.478-10,10v0.238c0,5.522,4.477,10,10,10c5.522,0,10-4.478,10-10v-0.238
			C89.103,402.056,84.626,397.578,79.103,397.578z"/>
	</g>
</g>
<g>
	<g>
		<path d="M432.782,397.578c-5.522,0-10,4.478-10,10v0.238c0,5.522,4.478,10,10,10c5.523,0,10-4.478,10-10v-0.238
			C442.782,402.056,438.304,397.578,432.782,397.578z"/>
	</g>
</g>
<g>
</g>
<g>
</g>
<g>
</g>
<g>
</g>
<g>
</g>
<g>
</g>
<g>
</g>
<g>
</g>
<g>
</g>
<g>
</g>
<g>
</g>
<g>
</g>
<g>
</g>
<g>
</g>
<g>
</g>
</svg>
